<svg xmlns="http://www.w3.org/2000/svg" xmlns:xlink="http://www.w3.org/1999/xlink" width="200" zoomAndPan="magnify" viewBox="0 0 150 149.999998" height="200" preserveAspectRatio="xMidYMid meet" version="1.0"><defs><clipPath id="ae1717cf9a"><path d="M 0 52.910156 L 33 52.910156 L 33 97.160156 L 0 97.160156 Z M 0 52.910156 " clip-rule="nonzero"/></clipPath><clipPath id="69eee91102"><path d="M 17.859375 75 L 22 75 L 22 83 L 17.859375 83 Z M 17.859375 75 " clip-rule="nonzero"/></clipPath><clipPath id="bb08db30bd"><path d="M 17.910156 53.550781 L 31.96875 58.09375 L 31.96875 84.746094 L 17.859375 79.996094 Z M 17.910156 53.550781 " clip-rule="evenodd"/></clipPath><clipPath id="df148162b2"><path d="M 28 62 L 32 62 L 32 70 L 28 70 Z M 28 62 " clip-rule="nonzero"/></clipPath><clipPath id="776dd301ca"><path d="M 17.910156 53.550781 L 31.96875 58.09375 L 31.96875 84.746094 L 17.859375 79.996094 Z M 17.910156 53.550781 " clip-rule="evenodd"/></clipPath><clipPath id="3db0fd4624"><path d="M 17.859375 55 L 32 55 L 32 85 L 17.859375 85 Z M 17.859375 55 " clip-rule="nonzero"/></clipPath><clipPath id="cc07e674c7"><path d="M 17.910156 53.550781 L 31.96875 58.09375 L 31.96875 84.746094 L 17.859375 79.996094 Z M 17.910156 53.550781 " clip-rule="evenodd"/></clipPath><clipPath id="b6ba86a5f6"><path d="M 17.859375 53.550781 L 22 53.550781 L 22 60 L 17.859375 60 Z M 17.859375 53.550781 " clip-rule="nonzero"/></clipPath><clipPath id="4290597545"><path d="M 17.910156 53.550781 L 31.96875 58.09375 L 31.96875 84.746094 L 17.859375 79.996094 Z M 17.910156 53.550781 " clip-rule="evenodd"/></clipPath></defs><path fill="#ec2d2f" d="M 50.15625 55.085938 L 43.085938 55.085938 L 43.085938 80.792969 L 58.449219 80.792969 L 58.449219 75.117188 L 50.15625 75.117188 Z M 50.15625 55.085938 " fill-opacity="1" fill-rule="evenodd"/><path fill="#ec2d2f" d="M 79.152344 63.691406 C 78.011719 62.75 76.738281 62.039062 75.339844 61.550781 C 73.941406 61.066406 72.503906 60.839844 71.023438 60.875 C 69.535156 60.871094 68.09375 61.128906 66.703125 61.652344 C 65.308594 62.175781 64.050781 62.929688 62.933594 63.910156 C 61.878906 64.792969 61.0625 65.859375 60.476562 67.101562 C 59.890625 68.347656 59.589844 69.65625 59.578125 71.035156 C 59.578125 72.402344 59.859375 73.710938 60.425781 74.960938 C 60.988281 76.207031 61.78125 77.285156 62.808594 78.191406 C 63.929688 79.238281 65.210938 80.03125 66.648438 80.570312 C 68.085938 81.109375 69.570312 81.355469 71.101562 81.300781 C 72.632812 81.335938 74.117188 81.09375 75.558594 80.570312 C 76.996094 80.046875 78.292969 79.277344 79.441406 78.261719 C 80.511719 77.359375 81.339844 76.265625 81.917969 74.988281 C 82.496094 73.707031 82.773438 72.367188 82.746094 70.960938 C 82.714844 69.542969 82.386719 68.199219 81.757812 66.929688 C 81.128906 65.65625 80.261719 64.578125 79.152344 63.691406 Z M 71.144531 75.878906 C 68.324219 75.878906 65.953125 73.742188 65.953125 71.105469 C 65.925781 70.757812 65.929688 70.410156 65.96875 70.0625 C 66.007812 69.714844 66.082031 69.375 66.191406 69.046875 C 66.296875 68.714844 66.4375 68.394531 66.609375 68.09375 C 66.78125 67.789062 66.980469 67.503906 67.207031 67.242188 C 67.4375 66.976562 67.6875 66.738281 67.964844 66.527344 C 68.242188 66.3125 68.535156 66.128906 68.847656 65.976562 C 69.160156 65.820312 69.484375 65.699219 69.820312 65.613281 C 70.160156 65.523438 70.5 65.46875 70.847656 65.449219 C 71.195312 65.429688 71.542969 65.445312 71.886719 65.496094 C 72.234375 65.542969 72.570312 65.628906 72.898438 65.746094 C 73.226562 65.863281 73.539062 66.011719 73.835938 66.191406 C 74.132812 66.371094 74.410156 66.582031 74.667969 66.816406 C 74.925781 67.050781 75.15625 67.3125 75.359375 67.59375 C 75.566406 67.875 75.738281 68.175781 75.882812 68.492188 C 76.027344 68.808594 76.140625 69.140625 76.21875 69.480469 C 76.296875 69.820312 76.34375 70.164062 76.351562 70.511719 C 76.363281 70.859375 76.335938 71.207031 76.277344 71.550781 C 76.21875 71.894531 76.125 72.226562 76 72.554688 C 75.871094 72.878906 75.714844 73.1875 75.527344 73.480469 C 75.339844 73.773438 75.121094 74.046875 74.878906 74.296875 C 74.636719 74.546875 74.371094 74.769531 74.085938 74.96875 C 73.796875 75.164062 73.492188 75.332031 73.171875 75.464844 C 72.851562 75.601562 72.519531 75.703125 72.179688 75.773438 C 71.835938 75.84375 71.492188 75.878906 71.144531 75.878906 Z M 71.144531 75.878906 " fill-opacity="1" fill-rule="evenodd"/><path fill="#ec2d2f" d="M 98.058594 61.015625 C 95.15625 61.015625 93.113281 62.027344 91.765625 63.980469 L 91.847656 61.375 L 85.714844 61.375 L 85.714844 80.792969 L 92.050781 80.792969 L 92.050781 70.269531 C 92.050781 67.671875 93.402344 66.332031 95.933594 66.332031 C 98.425781 66.332031 99.078125 67.558594 99.078125 70.269531 L 99.078125 80.792969 L 105.535156 80.792969 L 105.535156 67.996094 C 105.535156 63.546875 102.59375 61.015625 98.058594 61.015625 Z M 98.058594 61.015625 " fill-opacity="1" fill-rule="evenodd"/><path fill="#ec2d2f" d="M 124.5 65.96875 L 124.5 61.375 L 108.195312 61.375 L 108.195312 66.402344 L 117.226562 66.402344 L 108.195312 76.742188 L 108.195312 80.792969 L 124.660156 80.792969 L 124.660156 75.769531 L 116.535156 75.769531 Z M 124.5 65.96875 " fill-opacity="1" fill-rule="evenodd"/><path fill="#ec2d2f" d="M 143.539062 61.378906 L 143.539062 63.550781 C 142.070312 61.886719 140.027344 61.089844 137.371094 61.089844 C 136.027344 61.070312 134.726562 61.292969 133.464844 61.753906 C 132.207031 62.214844 131.070312 62.886719 130.058594 63.769531 C 129.777344 63.992188 129.511719 64.230469 129.257812 64.484375 C 129.003906 64.738281 128.769531 65.003906 128.546875 65.289062 C 128.324219 65.570312 128.121094 65.863281 127.933594 66.167969 C 127.746094 66.472656 127.574219 66.785156 127.421875 67.109375 C 127.269531 67.4375 127.136719 67.769531 127.023438 68.109375 C 126.910156 68.449219 126.816406 68.792969 126.742188 69.144531 C 126.667969 69.496094 126.617188 69.847656 126.582031 70.207031 C 126.550781 70.5625 126.535156 70.921875 126.542969 71.277344 C 126.550781 71.636719 126.582031 71.992188 126.628906 72.347656 C 126.679688 72.703125 126.746094 73.054688 126.835938 73.402344 C 126.925781 73.75 127.035156 74.089844 127.164062 74.425781 C 127.292969 74.757812 127.4375 75.085938 127.605469 75.402344 C 127.769531 75.722656 127.953125 76.027344 128.15625 76.324219 C 128.355469 76.621094 128.574219 76.90625 128.808594 77.175781 C 129.042969 77.449219 129.289062 77.703125 129.554688 77.949219 C 129.816406 78.191406 130.09375 78.417969 130.382812 78.628906 C 131.363281 79.390625 132.441406 79.96875 133.617188 80.359375 C 134.796875 80.75 136.007812 80.933594 137.25 80.902344 C 138.4375 80.964844 139.59375 80.796875 140.71875 80.402344 C 141.84375 80.007812 142.851562 79.417969 143.746094 78.628906 L 143.746094 80.796875 L 150 80.796875 L 150 61.378906 Z M 138.671875 75.734375 C 135.367188 75.734375 132.996094 73.671875 132.996094 70.960938 C 132.996094 68.359375 135.367188 66.152344 138.429688 66.152344 C 141.453125 66.152344 143.78125 68.253906 143.78125 71.035156 C 143.785156 73.710938 141.457031 75.734375 138.671875 75.734375 Z M 138.671875 75.734375 " fill-opacity="1" fill-rule="evenodd"/><g clip-path="url(#ae1717cf9a)"><path fill="#2764b0" d="M 0.015625 65.210938 L 12.28125 52.957031 L 12.28125 83.171875 L 32.113281 89.65625 L 20.027344 97.109375 L 0 92.003906 Z M 0.015625 65.210938 " fill-opacity="1" fill-rule="nonzero"/></g><path fill="#ec2d2f" d="M 17.800781 53.171875 L 17.589844 53.097656 L 16.667969 53.976562 L 16.667969 80.84375 L 31.34375 85.644531 L 32.292969 85.199219 L 32.144531 85.148438 L 32.292969 85.199219 L 32.292969 57.855469 Z M 17.910156 53.546875 L 31.96875 58.089844 L 31.96875 84.746094 L 17.859375 79.996094 Z M 17.910156 53.546875 " fill-opacity="1" fill-rule="evenodd"/><path fill="#2764b0" d="M 46.554688 88.410156 C 46.339844 88.570312 46.101562 88.648438 45.835938 88.644531 C 45.472656 88.65625 45.167969 88.535156 44.914062 88.273438 C 44.632812 87.90625 44.515625 87.492188 44.558594 87.03125 C 44.519531 86.589844 44.640625 86.191406 44.917969 85.847656 C 45.179688 85.589844 45.492188 85.46875 45.855469 85.480469 C 46.117188 85.472656 46.351562 85.542969 46.566406 85.6875 C 46.765625 85.824219 46.894531 86.011719 46.953125 86.25 L 47.988281 86.035156 C 47.894531 85.699219 47.71875 85.417969 47.457031 85.1875 C 47.003906 84.828125 46.488281 84.660156 45.910156 84.6875 C 45.234375 84.660156 44.648438 84.871094 44.148438 85.324219 C 43.660156 85.816406 43.4375 86.410156 43.480469 87.105469 C 43.445312 87.773438 43.667969 88.34375 44.144531 88.8125 C 44.628906 89.25 45.195312 89.460938 45.847656 89.433594 C 46.34375 89.453125 46.800781 89.332031 47.222656 89.070312 C 47.617188 88.792969 47.878906 88.421875 48.003906 87.953125 L 46.988281 87.667969 C 46.925781 87.964844 46.78125 88.210938 46.554688 88.410156 Z M 46.554688 88.410156 " fill-opacity="1" fill-rule="evenodd"/><path fill="#2764b0" d="M 50.269531 87.328125 L 52.878906 87.328125 L 52.878906 86.558594 L 50.269531 86.558594 L 50.269531 85.542969 L 53.074219 85.542969 L 53.074219 84.761719 L 49.21875 84.761719 L 49.21875 89.359375 L 53.171875 89.359375 L 53.171875 88.585938 L 50.269531 88.585938 Z M 50.269531 87.328125 " fill-opacity="1" fill-rule="evenodd"/><path fill="#2764b0" d="M 57.539062 87.832031 L 55.414062 84.765625 L 54.390625 84.765625 L 54.390625 89.359375 L 55.367188 89.359375 L 55.367188 86.363281 L 57.460938 89.359375 L 58.511719 89.359375 L 58.511719 84.765625 L 57.535156 84.765625 Z M 57.539062 87.832031 " fill-opacity="1" fill-rule="evenodd"/><path fill="#2764b0" d="M 59.570312 85.542969 L 61.113281 85.542969 L 61.113281 89.359375 L 62.160156 89.359375 L 62.160156 85.546875 L 63.695312 85.546875 L 63.695312 84.765625 L 59.570312 84.765625 Z M 59.570312 85.542969 " fill-opacity="1" fill-rule="evenodd"/><path fill="#2764b0" d="M 68.128906 87.714844 C 67.960938 87.5625 67.773438 87.433594 67.570312 87.332031 C 67.957031 87.304688 68.300781 87.164062 68.597656 86.910156 C 68.835938 86.675781 68.953125 86.390625 68.941406 86.054688 C 68.945312 85.789062 68.871094 85.546875 68.714844 85.332031 C 68.5625 85.117188 68.363281 84.96875 68.113281 84.890625 C 67.714844 84.792969 67.3125 84.75 66.902344 84.769531 L 64.695312 84.769531 L 64.695312 89.355469 L 65.746094 89.355469 L 65.746094 87.441406 L 65.960938 87.441406 C 66.136719 87.433594 66.3125 87.449219 66.484375 87.492188 C 66.605469 87.53125 66.710938 87.59375 66.800781 87.683594 C 67 87.894531 67.1875 88.121094 67.355469 88.355469 L 68.113281 89.355469 L 69.367188 89.355469 L 68.730469 88.460938 C 68.554688 88.195312 68.355469 87.945312 68.128906 87.714844 Z M 66.519531 86.707031 L 65.742188 86.707031 L 65.742188 85.542969 L 66.558594 85.542969 C 66.984375 85.542969 67.238281 85.550781 67.324219 85.5625 C 67.476562 85.574219 67.609375 85.636719 67.71875 85.742188 C 67.820312 85.847656 67.867188 85.972656 67.859375 86.117188 C 67.863281 86.246094 67.828125 86.359375 67.753906 86.460938 C 67.675781 86.558594 67.578125 86.625 67.460938 86.65625 C 67.148438 86.703125 66.835938 86.722656 66.519531 86.707031 Z M 66.519531 86.707031 " fill-opacity="1" fill-rule="evenodd"/><path fill="#2764b0" d="M 72.550781 84.691406 C 72.164062 84.683594 71.789062 84.746094 71.429688 84.871094 C 71.175781 84.96875 70.953125 85.105469 70.757812 85.289062 C 70.558594 85.46875 70.394531 85.675781 70.273438 85.917969 C 70.101562 86.292969 70.023438 86.683594 70.035156 87.09375 C 70 87.773438 70.230469 88.347656 70.722656 88.816406 C 71.253906 89.269531 71.867188 89.476562 72.5625 89.441406 C 73.253906 89.476562 73.863281 89.265625 74.390625 88.8125 C 74.609375 88.578125 74.78125 88.308594 74.898438 88.003906 C 75.015625 87.703125 75.074219 87.390625 75.074219 87.066406 C 75.074219 86.742188 75.011719 86.429688 74.894531 86.128906 C 74.773438 85.828125 74.605469 85.558594 74.382812 85.324219 C 73.855469 84.867188 73.246094 84.65625 72.550781 84.691406 Z M 73.585938 88.246094 C 73.300781 88.527344 72.957031 88.660156 72.558594 88.644531 C 72.15625 88.660156 71.8125 88.523438 71.523438 88.246094 C 71.253906 87.898438 71.117188 87.503906 71.117188 87.0625 C 71.113281 86.625 71.246094 86.230469 71.511719 85.878906 C 71.65625 85.753906 71.816406 85.65625 71.996094 85.585938 C 72.175781 85.519531 72.359375 85.484375 72.550781 85.484375 C 72.742188 85.484375 72.929688 85.515625 73.109375 85.582031 C 73.289062 85.648438 73.449219 85.746094 73.59375 85.871094 C 73.894531 86.207031 74.027344 86.601562 73.988281 87.046875 C 74.023438 87.503906 73.890625 87.902344 73.585938 88.246094 Z M 73.585938 88.246094 " fill-opacity="1" fill-rule="evenodd"/><path fill="#2764b0" d="M 78.550781 89.359375 L 79.601562 89.359375 L 79.601562 87.40625 L 81.769531 87.40625 L 81.769531 86.628906 L 79.601562 86.628906 L 79.601562 85.542969 L 82.113281 85.542969 L 82.113281 84.765625 L 78.554688 84.765625 Z M 78.550781 89.359375 " fill-opacity="1" fill-rule="evenodd"/><path fill="#2764b0" d="M 84.34375 87.328125 L 86.949219 87.328125 L 86.949219 86.558594 L 84.34375 86.558594 L 84.34375 85.542969 L 87.144531 85.542969 L 87.144531 84.761719 L 83.296875 84.761719 L 83.296875 89.359375 L 87.246094 89.359375 L 87.246094 88.585938 L 84.34375 88.585938 Z M 84.34375 87.328125 " fill-opacity="1" fill-rule="evenodd"/><path fill="#2764b0" d="M 91.890625 87.714844 C 91.722656 87.5625 91.535156 87.433594 91.332031 87.332031 C 91.71875 87.304688 92.0625 87.164062 92.359375 86.910156 C 92.597656 86.675781 92.714844 86.390625 92.703125 86.054688 C 92.707031 85.789062 92.632812 85.546875 92.480469 85.332031 C 92.324219 85.117188 92.125 84.96875 91.875 84.890625 C 91.476562 84.792969 91.074219 84.75 90.664062 84.769531 L 88.457031 84.769531 L 88.457031 89.355469 L 89.507812 89.355469 L 89.507812 87.441406 L 89.722656 87.441406 C 89.898438 87.433594 90.074219 87.449219 90.246094 87.492188 C 90.367188 87.53125 90.472656 87.59375 90.5625 87.683594 C 90.761719 87.894531 90.949219 88.121094 91.117188 88.355469 L 91.875 89.355469 L 93.128906 89.355469 L 92.492188 88.460938 C 92.316406 88.195312 92.113281 87.945312 91.890625 87.714844 Z M 90.277344 86.707031 L 89.503906 86.707031 L 89.503906 85.542969 L 90.320312 85.542969 C 90.75 85.542969 91.003906 85.550781 91.085938 85.5625 C 91.238281 85.574219 91.371094 85.636719 91.480469 85.742188 C 91.582031 85.847656 91.628906 85.972656 91.621094 86.117188 C 91.628906 86.246094 91.59375 86.359375 91.515625 86.460938 C 91.441406 86.558594 91.34375 86.625 91.222656 86.65625 C 90.910156 86.703125 90.59375 86.722656 90.277344 86.707031 Z M 90.277344 86.707031 " fill-opacity="1" fill-rule="evenodd"/><path fill="#2764b0" d="M 97.453125 87.714844 C 97.285156 87.5625 97.097656 87.433594 96.890625 87.332031 C 97.28125 87.304688 97.625 87.164062 97.921875 86.910156 C 98.160156 86.675781 98.273438 86.390625 98.265625 86.054688 C 98.269531 85.789062 98.195312 85.546875 98.039062 85.332031 C 97.886719 85.117188 97.683594 84.96875 97.433594 84.890625 C 97.039062 84.792969 96.632812 84.75 96.226562 84.769531 L 94.019531 84.769531 L 94.019531 89.355469 L 95.070312 89.355469 L 95.070312 87.441406 L 95.28125 87.441406 C 95.460938 87.433594 95.636719 87.449219 95.808594 87.492188 C 95.929688 87.53125 96.035156 87.59375 96.121094 87.683594 C 96.324219 87.894531 96.507812 88.121094 96.679688 88.355469 L 97.4375 89.355469 L 98.691406 89.355469 L 98.054688 88.460938 C 97.878906 88.191406 97.675781 87.945312 97.453125 87.714844 Z M 95.839844 86.707031 L 95.066406 86.707031 L 95.066406 85.542969 L 95.882812 85.542969 C 96.304688 85.542969 96.5625 85.550781 96.648438 85.5625 C 96.800781 85.574219 96.933594 85.636719 97.042969 85.742188 C 97.144531 85.847656 97.191406 85.972656 97.183594 86.117188 C 97.1875 86.246094 97.152344 86.359375 97.078125 86.460938 C 97 86.558594 96.902344 86.625 96.78125 86.65625 C 96.46875 86.703125 96.15625 86.722656 95.839844 86.707031 Z M 95.839844 86.707031 " fill-opacity="1" fill-rule="evenodd"/><path fill="#2764b0" d="M 100.617188 87.328125 L 103.222656 87.328125 L 103.222656 86.558594 L 100.617188 86.558594 L 100.617188 85.542969 L 103.421875 85.542969 L 103.421875 84.761719 L 99.570312 84.761719 L 99.570312 89.359375 L 103.519531 89.359375 L 103.519531 88.585938 L 100.617188 88.585938 Z M 100.617188 87.328125 " fill-opacity="1" fill-rule="evenodd"/><path fill="#2764b0" d="M 104.355469 85.542969 L 105.894531 85.542969 L 105.894531 89.359375 L 106.945312 89.359375 L 106.945312 85.546875 L 108.484375 85.546875 L 108.484375 84.765625 L 104.359375 84.765625 Z M 104.355469 85.542969 " fill-opacity="1" fill-rule="evenodd"/><path fill="#2764b0" d="M 110.527344 87.328125 L 113.132812 87.328125 L 113.132812 86.558594 L 110.527344 86.558594 L 110.527344 85.542969 L 113.328125 85.542969 L 113.328125 84.761719 L 109.476562 84.761719 L 109.476562 89.359375 L 113.429688 89.359375 L 113.429688 88.585938 L 110.527344 88.585938 Z M 110.527344 87.328125 " fill-opacity="1" fill-rule="evenodd"/><path fill="#2764b0" d="M 124.328125 85.320312 C 123.800781 84.867188 123.1875 84.65625 122.492188 84.691406 C 122.109375 84.683594 121.734375 84.742188 121.371094 84.871094 C 121.121094 84.964844 120.894531 85.105469 120.695312 85.285156 C 120.496094 85.464844 120.335938 85.675781 120.214844 85.914062 C 120.042969 86.289062 119.964844 86.683594 119.980469 87.09375 C 119.941406 87.773438 120.171875 88.347656 120.664062 88.8125 C 120.925781 89.015625 121.214844 89.171875 121.527344 89.277344 C 121.84375 89.386719 122.167969 89.441406 122.5 89.441406 C 122.832031 89.441406 123.152344 89.386719 123.46875 89.277344 C 123.78125 89.171875 124.070312 89.015625 124.332031 88.8125 C 124.554688 88.578125 124.722656 88.308594 124.839844 88.003906 C 124.957031 87.703125 125.015625 87.390625 125.015625 87.066406 C 125.015625 86.742188 124.953125 86.429688 124.835938 86.128906 C 124.714844 85.828125 124.546875 85.558594 124.324219 85.324219 Z M 123.53125 88.246094 C 123.246094 88.527344 122.902344 88.660156 122.503906 88.644531 C 122.101562 88.65625 121.757812 88.523438 121.46875 88.242188 C 121.199219 87.894531 121.0625 87.503906 121.0625 87.0625 C 121.058594 86.621094 121.191406 86.226562 121.457031 85.875 C 121.601562 85.75 121.761719 85.652344 121.941406 85.585938 C 122.121094 85.519531 122.308594 85.484375 122.5 85.484375 C 122.691406 85.484375 122.875 85.515625 123.054688 85.582031 C 123.234375 85.648438 123.398438 85.746094 123.542969 85.871094 C 123.839844 86.207031 123.972656 86.597656 123.933594 87.046875 C 123.96875 87.503906 123.835938 87.902344 123.53125 88.246094 Z M 123.53125 88.246094 " fill-opacity="1" fill-rule="evenodd"/><path fill="#2764b0" d="M 118.074219 87.714844 C 117.90625 87.5625 117.722656 87.433594 117.515625 87.332031 C 117.90625 87.304688 118.246094 87.164062 118.542969 86.910156 C 118.78125 86.675781 118.898438 86.390625 118.886719 86.054688 C 118.890625 85.789062 118.816406 85.546875 118.664062 85.332031 C 118.511719 85.117188 118.308594 84.96875 118.058594 84.890625 C 117.660156 84.792969 117.257812 84.75 116.847656 84.769531 L 114.644531 84.769531 L 114.644531 89.355469 L 115.691406 89.355469 L 115.691406 87.441406 L 115.90625 87.441406 C 116.082031 87.433594 116.257812 87.449219 116.429688 87.492188 C 116.550781 87.53125 116.65625 87.597656 116.746094 87.683594 C 116.945312 87.894531 117.132812 88.121094 117.300781 88.355469 L 118.058594 89.355469 L 119.308594 89.355469 L 118.675781 88.460938 C 118.5 88.195312 118.300781 87.945312 118.074219 87.714844 Z M 116.464844 86.707031 L 115.6875 86.707031 L 115.6875 85.542969 L 116.507812 85.542969 C 116.929688 85.542969 117.1875 85.550781 117.273438 85.5625 C 117.425781 85.574219 117.554688 85.636719 117.664062 85.742188 C 117.765625 85.847656 117.816406 85.972656 117.808594 86.117188 C 117.8125 86.246094 117.777344 86.359375 117.703125 86.460938 C 117.625 86.558594 117.527344 86.625 117.40625 86.65625 C 117.09375 86.703125 116.78125 86.722656 116.464844 86.707031 Z M 116.464844 86.707031 " fill-opacity="1" fill-rule="evenodd"/><path fill="#ffffff" d="M 17.910156 53.550781 L 31.96875 58.09375 L 31.96875 84.746094 L 17.859375 79.996094 Z M 17.910156 53.550781 " fill-opacity="1" fill-rule="evenodd"/><g clip-path="url(#69eee91102)"><g clip-path="url(#bb08db30bd)"><path fill="#ec2d2f" d="M 17.355469 75.808594 L 17.34375 81.558594 L 21.09375 82.964844 L 21.085938 77.164062 Z M 17.355469 75.808594 " fill-opacity="1" fill-rule="evenodd"/></g></g><g clip-path="url(#df148162b2)"><g clip-path="url(#776dd301ca)"><path fill="#ec2d2f" d="M 28.761719 62.78125 L 28.761719 68.53125 L 32.652344 69.8125 L 32.652344 64.199219 Z M 28.761719 62.78125 " fill-opacity="1" fill-rule="evenodd"/></g></g><g clip-path="url(#3db0fd4624)"><g clip-path="url(#cc07e674c7)"><path fill="#ec2d2f" d="M 32.398438 75.347656 L 28.761719 73.980469 L 28.761719 68.503906 L 24.984375 67.253906 L 24.984375 72.816406 L 21.074219 71.4375 L 21.074219 65.90625 L 24.960938 67.25 L 24.996094 61.492188 L 28.859375 62.722656 L 28.855469 57.039062 L 24.921875 55.722656 L 24.929688 61.347656 L 21.066406 59.949219 L 21.074219 65.84375 L 17.183594 64.429688 L 17.167969 70.179688 L 21.066406 71.460938 L 21.074219 77.148438 L 24.976562 78.425781 L 24.976562 84.078125 L 28.761719 85.078125 L 28.769531 79.738281 L 32.449219 80.953125 Z M 28.742188 79.667969 L 24.988281 78.371094 L 24.988281 72.824219 L 28.757812 74.03125 Z M 28.742188 79.667969 " fill-opacity="1" fill-rule="evenodd"/></g></g><g clip-path="url(#b6ba86a5f6)"><g clip-path="url(#4290597545)"><path fill="#ec2d2f" d="M 21.117188 54.503906 L 17.277344 53.21875 L 17.265625 58.496094 L 21.117188 59.960938 Z M 21.117188 54.503906 " fill-opacity="1" fill-rule="evenodd"/></g></g><path fill="#ec2d2f" d="M 126.542969 84.28125 L 150 84.28125 L 150 89.847656 L 126.542969 89.847656 Z M 126.542969 84.28125 " fill-opacity="1" fill-rule="nonzero"/><path fill="#ffffff" d="M 135.492188 85.234375 L 134.664062 88.957031 L 136.515625 88.957031 L 136.792969 86.910156 L 137.605469 88.957031 L 138.71875 88.957031 L 139.554688 86.898438 L 139.832031 88.957031 L 141.65625 88.957031 L 140.769531 85.234375 L 138.894531 85.234375 L 138.15625 87.171875 L 137.457031 85.234375 Z M 135.492188 85.234375 " fill-opacity="1" fill-rule="evenodd"/><path fill="#ffffff" d="M 141.21875 85.234375 L 145.183594 85.234375 L 145.183594 86.460938 L 144.152344 86.460938 L 144.152344 88.953125 L 142.25 88.953125 L 142.25 86.457031 L 141.21875 86.457031 Z M 141.21875 85.234375 " fill-opacity="1" fill-rule="evenodd"/><path fill="#ffffff" d="M 145.15625 88.652344 C 145.519531 88.753906 145.886719 88.839844 146.257812 88.90625 C 146.617188 88.972656 146.984375 88.996094 147.351562 88.972656 C 147.761719 88.957031 148.15625 88.871094 148.535156 88.714844 C 148.875 88.601562 149.121094 88.378906 149.269531 88.050781 C 149.429688 87.738281 149.410156 87.4375 149.214844 87.148438 C 149 86.910156 148.734375 86.753906 148.421875 86.675781 C 148.089844 86.589844 147.75 86.53125 147.410156 86.503906 C 147.132812 86.480469 147.214844 86.324219 147.214844 86.324219 C 147.222656 86.132812 147.757812 86.171875 147.796875 86.171875 C 148.097656 86.226562 148.386719 86.320312 148.660156 86.453125 L 149.1875 85.476562 C 148.746094 85.292969 148.285156 85.1875 147.808594 85.164062 C 147.308594 85.128906 146.820312 85.191406 146.347656 85.359375 C 145.285156 85.703125 145.339844 86.519531 145.339844 86.519531 C 145.339844 86.835938 145.472656 87.074219 145.746094 87.238281 C 146.089844 87.417969 146.453125 87.523438 146.839844 87.558594 C 147.003906 87.550781 147.164062 87.578125 147.320312 87.632812 C 147.566406 87.710938 147.382812 87.894531 147.382812 87.894531 C 147.265625 87.945312 147.140625 87.972656 147.007812 87.980469 C 146.539062 87.964844 146.101562 87.835938 145.703125 87.582031 Z M 145.15625 88.652344 " fill-opacity="1" fill-rule="evenodd"/></svg>